<svg width="44" height="44" viewBox="0 0 44 44" fill="none" xmlns="http://www.w3.org/2000/svg">
<path d="M18.3333 12.8332C18.3329 15.3827 19.0919 17.8745 20.5135 19.9909C21.9351 22.1073 23.9549 23.7523 26.3152 24.716C28.6755 25.6798 31.2694 25.9188 33.7661 25.4023C36.2627 24.8859 38.549 23.6376 40.3333 21.8165V21.9998C40.3333 32.1253 32.1255 40.3332 22 40.3332C11.8745 40.3332 3.66663 32.1253 3.66663 21.9998C3.66663 11.8743 11.8745 3.6665 22 3.6665H22.1833C20.9624 4.86023 19.9927 6.28627 19.3315 7.86059C18.6703 9.4349 18.3309 11.1256 18.3333 12.8332ZM7.33329 21.9998C7.33196 25.2723 8.42509 28.4512 10.4388 31.0308C12.4524 33.6103 15.271 35.4424 18.4459 36.2353C21.6208 37.0283 24.9697 36.7367 27.9598 35.407C30.9499 34.0772 33.4094 31.7856 34.947 28.8968C32.2106 29.5415 29.3549 29.4763 26.6508 28.7075C23.9467 27.9387 21.4839 26.4917 19.496 24.5038C17.5081 22.5159 16.0611 20.0531 15.2923 17.349C14.5235 14.6449 14.4583 11.7892 15.103 9.05284C12.7555 10.3034 10.7924 12.1689 9.42376 14.4495C8.05513 16.7301 7.33252 19.3401 7.33329 21.9998Z" fill="white" fill-opacity="0.87"/>
</svg>
