<svg width="44" height="44" viewBox="0 0 44 44" fill="#000" xmlns="http://www.w3.org/2000/svg">
<path d="M22 32.9999C19.0827 32.9999 16.2848 31.841 14.2219 29.7781C12.159 27.7152 11 24.9173 11 21.9999C11 19.0825 12.159 16.2846 14.2219 14.2217C16.2848 12.1588 19.0827 10.9999 22 10.9999C24.9174 10.9999 27.7153 12.1588 29.7782 14.2217C31.8411 16.2846 33 19.0825 33 21.9999C33 24.9173 31.8411 27.7152 29.7782 29.7781C27.7153 31.841 24.9174 32.9999 22 32.9999ZM22 29.3333C23.945 29.3333 25.8102 28.5606 27.1855 27.1854C28.5608 25.8101 29.3334 23.9448 29.3334 21.9999C29.3334 20.055 28.5608 18.1897 27.1855 16.8145C25.8102 15.4392 23.945 14.6666 22 14.6666C20.0551 14.6666 18.1899 15.4392 16.8146 16.8145C15.4393 18.1897 14.6667 20.055 14.6667 21.9999C14.6667 23.9448 15.4393 25.8101 16.8146 27.1854C18.1899 28.5606 20.0551 29.3333 22 29.3333ZM20.1667 1.83325H23.8334V7.33325H20.1667V1.83325ZM20.1667 36.6666H23.8334V42.1666H20.1667V36.6666ZM6.44421 9.03642L9.03654 6.44409L12.925 10.3326L10.3327 12.9249L6.44421 9.03825V9.03642ZM31.075 33.6673L33.6674 31.0749L37.5559 34.9634L34.9635 37.5558L31.075 33.6673ZM34.9635 6.44225L37.5559 9.03642L33.6674 12.9249L31.075 10.3326L34.9635 6.44409V6.44225ZM10.3327 31.0749L12.925 33.6673L9.03654 37.5558L6.44421 34.9634L10.3327 31.0749ZM42.1667 20.1666V23.8333H36.6667V20.1666H42.1667ZM7.33337 20.1666V23.8333H1.83337V20.1666H7.33337Z" fill="#000"/>
</svg>
